<?xml version="1.0" encoding="UTF-8" standalone="no"?>
<svg
   viewBox="0 0 100 100"
   width="100mm"
   height="100mm"
   version="1.1"
   id="svg4"
   sodipodi:docname="event_cards_logo.svg"
   inkscape:export-filename="event_cards_logo.png"
   inkscape:export-xdpi="96"
   inkscape:export-ydpi="96"
   inkscape:version="1.3 (0e150ed6c4, 2023-07-21)"
   xmlns:inkscape="http://www.inkscape.org/namespaces/inkscape"
   xmlns:sodipodi="http://sodipodi.sourceforge.net/DTD/sodipodi-0.dtd"
   xmlns="http://www.w3.org/2000/svg"
   xmlns:svg="http://www.w3.org/2000/svg">
  <defs
     id="defs4" />
  <sodipodi:namedview
     id="namedview4"
     pagecolor="#ffffff"
     bordercolor="#000000"
     borderopacity="0.25"
     inkscape:showpageshadow="2"
     inkscape:pageopacity="0.0"
     inkscape:pagecheckerboard="0"
     inkscape:deskcolor="#d1d1d1"
     inkscape:document-units="mm"
     inkscape:zoom="2.3442083"
     inkscape:cx="188.97638"
     inkscape:cy="188.97638"
     inkscape:window-width="3840"
     inkscape:window-height="1057"
     inkscape:window-x="-8"
     inkscape:window-y="-8"
     inkscape:window-maximized="1"
     inkscape:current-layer="svg4" />
  <!-- Background Circle -->
  <circle
     cx="50"
     cy="50"
     r="48"
     fill="#f9e79f"
     stroke="#0073e6"
     stroke-width="2"
     id="circle1" />
  <!-- Gear Icon -->
  <g
     transform="translate(50, 50)"
     id="g2">
    <circle
       r="12"
       fill="#0073e6"
       id="circle2" />
    <path
       d="M-15,-5 L-20,-5 L-22,-10 L-18,-15 L-12,-12 L-10,-15 L-5,-20 L-5,-15 L5,-15 L5,-20 L10,-15 L12,-12 L18,-15 L22,-10 L20,-5 L15,-5 L15,5 L20,5 L22,10 L18,15 L12,12 L10,15 L5,20 L5,15 L-5,15 L-5,20 L-10,15 L-12,12 L-18,15 L-22,10 L-20,5 L-15,5 Z"
       fill="#0073e6"
       id="path2" />
  </g>
  <!-- Heartbeat Line -->
  <polyline
     points="10,60 20,50 30,70 40,40 50,50 60,30 70,50 80,40 90,60"
     fill="none"
     stroke="#ff0000"
     stroke-width="2"
     id="polyline2" />
  <!-- Stethoscope -->
  <path
     d="M30,70 C30,80 40,80 40,70 L40,60 C40,50 30,50 30,60 Z"
     fill="none"
     stroke="#0073e6"
     stroke-width="2"
     id="path3" />
  <circle
     cx="30"
     cy="70"
     r="3"
     fill="#0073e6"
     id="circle3" />
  <circle
     cx="40"
     cy="70"
     r="3"
     fill="#0073e6"
     id="circle4" />
  <!-- Event Text -->
  <text
     x="50"
     y="20"
     text-anchor="middle"
     font-size="12"
     font-family="Arial"
     fill="#0073e6"
     font-weight="bold"
     id="text4">Event</text>
</svg>
