<?xml version="1.0" encoding="UTF-8" standalone="no"?>
<!-- filepath: c:\Users\solorze\OneDrive - Boston Scientific\INCOSE\Healthcare Conference 2025\Medical Device Systems Engineering Game\Game Guide\funding_token_logo.svg -->

<svg
   viewBox="0 0 100 100"
   width="1in"
   height="1in"
   version="1.1"
   id="svg2"
   sodipodi:docname="funding token 2.svg"
   xml:space="preserve"
   inkscape:version="1.3 (0e150ed6c4, 2023-07-21)"
   xmlns:inkscape="http://www.inkscape.org/namespaces/inkscape"
   xmlns:sodipodi="http://sodipodi.sourceforge.net/DTD/sodipodi-0.dtd"
   xmlns="http://www.w3.org/2000/svg"
   xmlns:svg="http://www.w3.org/2000/svg"><defs
     id="defs2" /><sodipodi:namedview
     id="namedview2"
     pagecolor="#ffffff"
     bordercolor="#000000"
     borderopacity="0.25"
     inkscape:showpageshadow="2"
     inkscape:pageopacity="0.0"
     inkscape:pagecheckerboard="0"
     inkscape:deskcolor="#d1d1d1"
     inkscape:document-units="in"
     inkscape:zoom="9.1776568"
     inkscape:cx="3.1053678"
     inkscape:cy="42.821388"
     inkscape:window-width="3440"
     inkscape:window-height="1417"
     inkscape:window-x="-8"
     inkscape:window-y="-8"
     inkscape:window-maximized="1"
     inkscape:current-layer="svg2" /><!-- Outer Circle --><circle
     cx="50"
     cy="50"
     r="48"
     fill="white"
     stroke="#000000"
     stroke-width="2"
     id="circle1"
     style="display:inline;fill:#fddc5c;fill-opacity:1;stroke:#fddc5c;stroke-opacity:1" /><!-- Gear Symbol --><!-- Dollar Sign --><g
     id="g8"
     transform="matrix(0.1968298,0,0,0.1968298,4.5582436,4.7607287)">&#10;	<g
   id="XMLID_59_">&#10;		<g
   id="g3">&#10;			<path
   style="fill:#ffd248"
   d="m 230,100 c 69.004,0 125,55.996 125,125 0,69.004 -55.996,125 -125,125 -69.004,0 -125,-55.996 -125,-125 0,-69.004 55.996,-125 125,-125 z"
   id="path1" />&#10;			<path
   style="fill:#afb6bb"
   d="m 450,185 v 90 h -40.703 c -4.492,17.803 -11.494,34.6 -20.693,49.902 l 28.799,28.799 -63.604,63.701 -28.896,-28.799 c -15.303,9.199 -32.1,16.201 -49.902,20.693 V 450 h -90 v -40.703 c -17.793,-4.492 -34.6,-11.494 -49.902,-20.693 L 106.3,417.403 42.599,353.702 71.408,324.903 C 62.207,309.6 55.195,292.803 50.703,275 H 10 v -90 h 40.703 c 4.492,-17.793 11.504,-34.6 20.703,-49.902 L 42.597,106.202 106.298,42.598 135.097,71.407 C 150.4,62.207 167.207,55.195 185,50.703 V 10 h 90 v 40.703 c 17.803,4.492 34.6,11.504 49.902,20.703 l 28.799,-28.809 63.701,63.604 -28.799,28.896 c 9.199,15.303 16.201,32.109 20.693,49.902 H 450 Z m -95,40 c 0,-69.004 -55.996,-125 -125,-125 -69.004,0 -125,55.996 -125,125 0,69.004 55.996,125 125,125 69.004,0 125,-55.996 125,-125 z"
   id="path2" />&#10;			<path
   style="fill:#fdc447"
   d="m 230,135 c 49.688,0 90,40.322 90,90 0,49.688 -40.313,90 -90,90 -49.678,0 -90,-40.313 -90,-90 0,-49.678 40.322,-90 90,-90 z"
   id="path3" />&#10;		</g>&#10;		<g
   id="g7">&#10;			<path
   style="fill:#231f20"
   d="m 450,175 h -33.073 c -3.938,-13.355 -9.247,-26.169 -15.851,-38.251 l 23.409,-23.489 c 3.896,-3.909 3.889,-10.235 -0.018,-14.135 L 360.766,35.521 c -3.907,-3.901 -10.234,-3.899 -14.138,0.007 L 323.237,58.925 C 311.145,52.316 298.336,47.005 284.999,43.071 V 10 c 0,-5.523 -4.478,-10 -10,-10 h -90 c -5.523,0 -10,4.477 -10,10 v 33.073 c -13.341,3.935 -26.15,9.246 -38.238,15.854 L 113.37,35.529 c -3.903,-3.904 -10.232,-3.907 -14.138,-0.007 l -63.7,63.603 c -3.906,3.899 -3.913,10.228 -0.017,14.137 L 58.932,136.75 C 52.322,148.842 47.009,161.654 43.073,175 H 10 c -5.523,0 -10,4.477 -10,10 v 90 c 0,5.522 4.477,10 10,10 h 33.072 c 3.934,13.337 9.244,26.147 15.854,38.238 l -23.397,23.391 c -1.876,1.875 -2.931,4.419 -2.931,7.071 0,2.652 1.054,5.196 2.929,7.072 l 63.701,63.701 c 3.906,3.904 10.236,3.904 14.143,0 l 23.391,-23.392 c 12.079,6.601 24.889,11.909 38.239,15.845 V 450 c 0,5.522 4.477,10 10,10 h 90 c 5.522,0 10,-4.478 10,-10 v -33.072 c 13.352,-3.936 26.165,-9.245 38.251,-15.852 l 23.489,23.409 c 3.908,3.895 10.236,3.888 14.135,-0.018 l 63.603,-63.701 c 3.9,-3.906 3.899,-10.233 -0.005,-14.137 l -23.391,-23.391 c 6.602,-12.082 11.91,-24.892 15.845,-38.239 H 450 c 5.522,0 10,-4.478 10,-10 v -90 C 460,179.477 455.522,175 450,175 Z m -10,90 h -30.703 c -4.58,0 -8.575,3.112 -9.696,7.554 -4.226,16.748 -10.81,32.628 -19.567,47.196 -2.366,3.935 -1.748,8.977 1.499,12.224 l 21.733,21.733 -49.484,49.56 -21.82,-21.746 c -3.248,-3.236 -8.281,-3.85 -12.211,-1.487 -14.568,8.758 -30.448,15.342 -47.196,19.567 -4.441,1.121 -7.554,5.116 -7.554,9.696 V 440 h -70 v -30.703 c 0,-4.58 -3.111,-8.574 -7.552,-9.695 -16.757,-4.23 -32.636,-10.814 -47.198,-19.568 -3.936,-2.365 -8.977,-1.748 -12.224,1.499 l -21.728,21.728 -49.558,-49.558 21.735,-21.727 c 3.247,-3.247 3.866,-8.288 1.5,-12.225 -8.769,-14.587 -15.355,-30.467 -19.577,-47.196 -1.121,-4.441 -5.116,-7.554 -9.696,-7.554 H 20 v -70 h 30.703 c 4.58,0 8.574,-3.111 9.695,-7.552 4.227,-16.738 10.813,-32.617 19.578,-47.198 2.363,-3.931 1.749,-8.965 -1.488,-12.213 l -21.754,-21.819 49.558,-49.482 21.733,21.741 c 3.249,3.249 8.29,3.865 12.225,1.5 C 154.831,71.213 170.71,64.626 187.448,60.4 191.889,59.279 195,55.285 195,50.705 V 20 h 70 v 30.703 c 0,4.58 3.112,8.575 7.554,9.696 16.729,4.222 32.609,10.809 47.196,19.577 3.934,2.364 8.978,1.746 12.225,-1.5 l 21.733,-21.741 49.559,49.483 -21.746,21.82 c -3.237,3.247 -3.851,8.281 -1.487,12.211 8.754,14.563 15.338,30.441 19.568,47.198 1.121,4.441 5.115,7.552 9.695,7.552 H 440 Z"
   id="path4" />&#10;			<path
   style="fill:#231f20"
   d="m 230,90 c -74.439,0 -135,60.561 -135,135 0,74.439 60.561,135 135,135 74.439,0 135,-60.56 135,-135 C 365,150.56 304.44,90 230,90 Z m 0,250 c -63.411,0 -115,-51.589 -115,-115 0,-63.411 51.589,-115 115,-115 63.411,0 115,51.589 115,115 0,63.411 -51.589,115 -115,115 z"
   id="path5" />&#10;			<path
   style="fill:#231f20"
   d="m 245,175 h -5 v -15 h -20 v 15 h -5 c -11.028,0 -20,8.972 -20,20 v 20 c 0,11.028 8.972,20 20,20 h 15 15 v 20 h -30 v -10 h -20 v 10 c 0,11.028 8.972,20 20,20 h 5 v 15 h 20 v -15 h 5 c 11.028,0 20,-8.972 20,-20 v -20 c 0,-11.028 -8.972,-20 -20,-20 h -15 -15 v -20 h 30 v 10 h 20 v -10 c 0,-11.028 -8.972,-20 -20,-20 z"
   id="path6" />&#10;			<rect
   x="295"
   y="215"
   style="fill:#231f20"
   width="20"
   height="20"
   id="rect6" />&#10;			<rect
   x="145"
   y="215"
   style="fill:#231f20"
   width="20"
   height="20"
   id="rect7" />&#10;		</g>&#10;	</g>&#10;</g></svg>
