<?xml version="1.0" encoding="UTF-8" standalone="no"?>
<!-- filepath: c:\Users\solorze\OneDrive - Boston Scientific\INCOSE\Healthcare Conference 2025\Medical Device Systems Engineering Game\Game Guide\innovation_token_logo.svg -->

<svg
   viewBox="0 0 100 100"
   width="1in"
   height="1in"
   version="1.1"
   id="svg3"
   sodipodi:docname="innovation token.svg"
   xml:space="preserve"
   inkscape:version="1.3 (0e150ed6c4, 2023-07-21)"
   xmlns:inkscape="http://www.inkscape.org/namespaces/inkscape"
   xmlns:sodipodi="http://sodipodi.sourceforge.net/DTD/sodipodi-0.dtd"
   xmlns="http://www.w3.org/2000/svg"
   xmlns:svg="http://www.w3.org/2000/svg"><defs
     id="defs3" /><sodipodi:namedview
     id="namedview3"
     pagecolor="#ffffff"
     bordercolor="#000000"
     borderopacity="0.25"
     inkscape:showpageshadow="2"
     inkscape:pageopacity="0.0"
     inkscape:pagecheckerboard="0"
     inkscape:deskcolor="#d1d1d1"
     inkscape:document-units="in"
     inkscape:zoom="6.4895833"
     inkscape:cx="-43.76244"
     inkscape:cy="89.373997"
     inkscape:window-width="3440"
     inkscape:window-height="1417"
     inkscape:window-x="-8"
     inkscape:window-y="-8"
     inkscape:window-maximized="1"
     inkscape:current-layer="svg3" /><!-- Outer Circle --><circle
     cx="50"
     cy="50"
     r="48"
     fill="#ffffff"
     stroke="#000000"
     stroke-width="2"
     id="circle1"
     style="fill:#64c8ff;fill-opacity:1;stroke:#64c8ff;stroke-opacity:1" /><!-- Gear Shape --><!-- Central Light Bulb --><g
     id="g7"
     transform="matrix(0.18511788,0,0,0.18511788,5.4883339,6.794818)">&#10;	<g
   id="XMLID_30_">&#10;		<g
   id="g3">&#10;			<rect
   x="202.5"
   y="395"
   style="fill:#546a79"
   width="70"
   height="50"
   id="rect1" />&#10;			<polygon
   style="fill:#afb6bb"
   points="292.5,355 292.5,395 272.5,395 202.5,395 182.5,395 182.5,355 "
   id="polygon1" />&#10;			<rect
   x="182.5"
   y="320"
   style="fill:#e7eced"
   width="110"
   height="35"
   id="rect2" />&#10;			<path
   style="fill:#ffd248"
   d="m 377.5,150 c 0,57.798 -35,107.402 -85,128.799 V 320 h -110 v -41.201 c -50,-21.396 -85,-71.001 -85,-128.799 0,-77.3 62.695,-140 140,-140 77.305,0 140,62.7 140,140 z"
   id="path2" />&#10;			<path
   style="fill:#feca47"
   d="m 332.5,150 c 0,52.466 -42.529,95 -95,95 -52.461,0 -95,-42.534 -95,-95 0,-52.466 42.539,-95 95,-95 52.471,0 95,42.534 95,95 z"
   id="path3" />&#10;		</g>&#10;		<g
   id="g6">&#10;			<path
   style="fill:#231f20"
   d="m 237.5,0 c -82.71,0 -150,67.29 -150,150 0,57.925 33.147,110.298 85,135.238 V 395 c 0,5.523 4.477,10 10,10 h 10 v 40 c 0,5.523 4.477,10 10,10 h 25 v 20 h 20 v -20 h 25 c 5.522,0 10,-4.477 10,-10 v -40 h 10 c 5.522,0 10,-4.477 10,-10 V 285.238 c 51.853,-24.939 85,-77.313 85,-135.238 0,-82.71 -67.29,-150 -150,-150 z m -45,330 h 90 v 15 h -90 z m 70,105 h -50 v -30 h 50 z m 20,-50 h -10 -70 -10 v -20 h 90 z m 6.065,-115.395 c -3.679,1.574 -6.065,5.191 -6.065,9.193 V 310 h -90 v -31.201 c 0,-4.002 -2.387,-7.619 -6.065,-9.193 C 138.483,249.086 107.5,202.138 107.5,150 c 0,-71.682 58.317,-130 130,-130 71.683,0 130,58.318 130,130 0,52.138 -30.983,99.086 -78.935,119.605 z"
   id="path4" />&#10;			<path
   style="fill:#231f20"
   d="m 272.5,145 h -56.618 l 45.014,-69.567 -16.791,-10.865 -55,85 c -1.99,3.076 -2.14,6.994 -0.389,10.211 1.751,3.218 5.121,5.221 8.784,5.221 h 59.242 l -33.29,70.742 18.096,8.516 40,-85 c 1.458,-3.098 1.229,-6.726 -0.605,-9.616 C 279.109,146.751 275.924,145 272.5,145 Z"
   id="path5" />&#10;			<rect
   x="137.5"
   y="145"
   style="fill:#231f20"
   width="20"
   height="20"
   id="rect5" />&#10;			<rect
   x="317.5"
   y="145"
   style="fill:#231f20"
   width="20"
   height="20"
   id="rect6" />&#10;		</g>&#10;	</g>&#10;</g></svg>
