<?xml version="1.0" encoding="UTF-8" standalone="no"?>
<!-- filepath: c:\Users\solorze\OneDrive - Boston Scientific\INCOSE\Healthcare Conference 2025\Medical Device Systems Engineering Game\Game Guide\funding_token_logo.svg -->

<svg
   viewBox="0 0 100 100"
   width="1in"
   height="1in"
   version="1.1"
   id="svg2"
   sodipodi:docname="time token.svg"
   xml:space="preserve"
   inkscape:version="1.3 (0e150ed6c4, 2023-07-21)"
   xmlns:inkscape="http://www.inkscape.org/namespaces/inkscape"
   xmlns:sodipodi="http://sodipodi.sourceforge.net/DTD/sodipodi-0.dtd"
   xmlns="http://www.w3.org/2000/svg"
   xmlns:svg="http://www.w3.org/2000/svg"><defs
     id="defs2" /><sodipodi:namedview
     id="namedview2"
     pagecolor="#ffffff"
     bordercolor="#000000"
     borderopacity="0.25"
     inkscape:showpageshadow="2"
     inkscape:pageopacity="0.0"
     inkscape:pagecheckerboard="0"
     inkscape:deskcolor="#d1d1d1"
     inkscape:document-units="in"
     inkscape:zoom="6.4895833"
     inkscape:cx="6.6260032"
     inkscape:cy="66.414125"
     inkscape:window-width="3440"
     inkscape:window-height="1417"
     inkscape:window-x="-8"
     inkscape:window-y="-8"
     inkscape:window-maximized="1"
     inkscape:current-layer="svg2" /><!-- Outer Circle --><!-- Gear Symbol --><!-- Dollar Sign --><g
     id="g7"
     transform="scale(0.20408163)">&#10;	<g
   id="XMLID_34_">&#10;		<g
   id="g3">&#10;			<path
   style="fill:#ffffff"
   d="M 245,440 C 189.902,440 140.098,417.1 104.702,380.303 70.801,345.303 50,297.5 50,245 50,193.701 69.8,147.002 102.202,112.207 137.798,73.906 188.599,50 245,50 v 60 25 115 l 75,75 20,15 42.9,42.9 C 347.598,418.203 298.799,440 245,440 Z"
   id="path1" />&#10;			<path
   style="fill:#f26522"
   d="m 440,245 c 0,53.799 -21.797,102.598 -57.1,137.9 L 340,340 320,325 245,250 V 135 110 50 c 107.695,0 195,87.305 195,195 z"
   id="path2" />&#10;			<path
   style="fill:#afb6bb"
   d="M 382.9,382.9 C 418.203,347.598 440,298.799 440,245 440,137.305 352.695,50 245,50 188.599,50 137.798,73.906 102.202,112.207 69.8,147.002 50,193.701 50,245 50,297.5 70.801,345.303 104.702,380.303 140.098,417.1 189.902,440 245,440 c 53.799,0 102.598,-21.797 137.9,-57.1 z M 245,10 C 374.805,10 480,115.195 480,245 480,374.805 374.805,480 245,480 115.2,480 10,374.805 10,245 10,115.195 115.2,10 245,10 Z"
   id="path3" />&#10;		</g>&#10;		<g
   id="g6">&#10;			<path
   style="fill:#231f20"
   d="M 418.248,71.752 C 371.977,25.482 310.45,0 245,0 179.551,0 118.025,25.482 71.754,71.752 25.483,118.022 0,179.55 0,245 0,310.45 25.483,371.978 71.754,418.248 118.025,464.518 179.551,490 245,490 310.45,490 371.977,464.518 418.248,418.248 464.518,371.978 490,310.45 490,245 490,179.55 464.518,118.022 418.248,71.752 Z M 404.105,404.105 C 361.613,446.599 305.108,470 245,470 184.894,470 128.389,446.599 85.896,404.105 43.402,361.612 20,305.107 20,245 20,184.893 43.402,128.388 85.896,85.895 128.389,43.401 184.894,20 245,20 305.108,20 361.613,43.401 404.105,85.895 446.598,128.387 470,184.892 470,245 c 0,60.108 -23.402,116.613 -65.895,159.105 z"
   id="path4" />&#10;			<path
   style="fill:#231f20"
   d="m 245,40 c -28.99,0 -57.004,5.923 -83.265,17.604 -25.381,11.29 -47.875,27.37 -66.851,47.788 C 59.492,143.398 40,192.979 40,245 c 0,53.444 20.427,103.966 57.495,142.235 18.881,19.629 41.081,35.067 65.983,45.887 C 189.254,444.321 216.682,450 245,450 299.776,450 351.262,428.682 389.971,389.972 428.682,351.262 450,299.776 450,245 450,131.963 358.038,40 245,40 Z M 118.888,380.254 152.071,347.07 137.928,332.929 105.015,365.841 C 78.093,334.834 62.46,296.11 60.274,255 H 110 V 235 H 60.277 c 2.128,-39.816 16.933,-77.588 42.396,-108.184 l 35.256,35.255 14.142,-14.143 -35.805,-35.801 C 131.905,96.933 149.895,84.759 169.863,75.877 190.518,66.689 212.386,61.454 235,60.264 V 110 h 20 V 60.272 c 44.742,2.396 85.306,20.766 116.094,49.491 l -38.165,38.165 14.143,14.143 37.904,-37.904 c 26.002,30.081 42.491,68.599 44.752,110.833 H 380 v 20 h 49.728 c -2.239,42.353 -18.675,82.05 -47.02,113.565 l -35.637,-35.637 -14.143,14.143 35.637,35.637 C 337.049,411.054 297.353,427.489 255,429.728 V 380 h -20 v 49.731 c -43.628,-2.295 -84.231,-19.59 -116.112,-49.477 z"
   id="path5" />&#10;			<path
   style="fill:#231f20"
   d="M 312.929,332.071 327.072,317.928 255,245.857 V 135 h -20 v 115 c 0,2.652 1.054,5.195 2.929,7.071 z"
   id="path6" />&#10;		</g>&#10;	</g>&#10;</g></svg>
